<svg width="43" height="42" viewBox="0 0 43 42" fill="none" xmlns="http://www.w3.org/2000/svg">
<path d="M22.5675 4.00225C22.2714 3.74494 21.8923 3.60324 21.5 3.60324C21.1077 3.60324 20.7286 3.74494 20.4325 4.00225C19.1023 5.15408 18.0279 6.57154 17.2783 8.16349C16.5288 9.75544 16.1207 11.4866 16.0803 13.2457C16.0792 13.409 16.1241 13.5693 16.2098 13.7083C16.2955 13.8472 16.4186 13.9592 16.565 14.0315C17.63 14.5852 18.6286 15.258 19.5418 16.037C19.9933 16.4202 20.4028 16.821 20.7738 17.2287C21.1588 17.6522 21.8413 17.6522 22.2263 17.2287C22.5973 16.821 23.0068 16.4202 23.4583 16.0387C24.3706 15.2595 25.3687 14.5867 26.4333 14.0332C26.58 13.9612 26.7035 13.8493 26.7895 13.7103C26.8756 13.5714 26.9207 13.4109 26.9198 13.2475C26.8797 11.4881 26.4718 9.7565 25.7222 8.16422C24.9726 6.57194 23.898 5.15421 22.5675 4.00225ZM21.5 31.5752C22.9049 29.102 25.0162 27.1044 27.5634 25.8386C30.1106 24.5728 32.9778 24.0963 35.7975 24.4702C36.2146 24.5254 36.5947 24.7383 36.8597 25.0651C37.1246 25.3919 37.2543 25.8078 37.222 26.2272C36.965 29.5661 35.4573 32.6849 33.0003 34.9603C30.5433 37.2356 27.318 38.4997 23.9693 38.5H19.0308C15.682 38.4997 12.4568 37.2356 9.99977 34.9603C7.54275 32.6849 6.03503 29.5661 5.77801 26.2272C5.74617 25.8079 5.876 25.3922 6.14088 25.0655C6.40576 24.7388 6.78561 24.5258 7.20251 24.4702C10.0223 24.0961 12.8895 24.5725 15.4368 25.8383C17.9841 27.1041 20.0954 29.1018 21.5 31.5752ZM34.8805 22.6275C31.6465 22.449 28.486 23.2925 25.91 24.6662C24.3648 25.4887 22.9525 26.5475 21.8465 27.7655C21.8026 27.8137 21.7491 27.8522 21.6894 27.8785C21.6297 27.9048 21.5652 27.9184 21.5 27.9184C21.4348 27.9184 21.3703 27.9048 21.3106 27.8785C21.251 27.8522 21.1975 27.8137 21.1535 27.7655C20.0493 26.5457 18.6335 25.4887 17.09 24.6662C14.521 23.296 11.3675 22.4542 8.14576 22.6275C6.86826 20.615 5.99326 18.305 5.78326 15.9775C5.76358 15.7574 5.78758 15.5357 5.85389 15.3249C5.92019 15.1142 6.0275 14.9186 6.16963 14.7495C6.31177 14.5804 6.48593 14.441 6.68211 14.3394C6.87829 14.2378 7.09261 14.176 7.31276 14.1575C11.6073 13.7987 15.193 14.6475 18.4113 17.3722C19.862 18.6025 20.8368 20.0795 21.5 21.3395C22.165 20.0795 23.138 18.6025 24.5888 17.3722C27.8088 14.6457 31.419 13.7987 35.7135 14.1575C35.9337 14.176 36.148 14.2378 36.3442 14.3394C36.5403 14.441 36.7145 14.5804 36.8566 14.7495C36.9988 14.9186 37.1061 15.1142 37.1724 15.3249C37.2387 15.5357 37.2627 15.7574 37.243 15.9775C37.033 18.305 36.158 20.6167 34.8805 22.6275Z" fill="#34423F"/>
</svg>
