<svg width="227" height="85" viewBox="0 0 227 85" fill="none" xmlns="http://www.w3.org/2000/svg">
<g opacity="0.3" clip-path="url(#clip0_15_1979)">
<circle cx="15.6667" cy="3.66666" r="2" fill="#333333"/>
<circle cx="35.3333" cy="3.66666" r="2" fill="#333333"/>
<circle cx="55" cy="3.66666" r="2" fill="#333333"/>
<circle cx="74.6667" cy="3.66666" r="2" fill="#333333"/>
<circle cx="94.3333" cy="3.66666" r="2" fill="#333333"/>
<circle cx="114" cy="3.66666" r="2" fill="#333333"/>
<circle cx="133.667" cy="3.66666" r="2" fill="#333333"/>
<circle cx="153.333" cy="3.66666" r="2" fill="#333333"/>
<circle cx="173" cy="3.66666" r="2" fill="#333333"/>
<circle cx="192.667" cy="3.66666" r="2" fill="#333333"/>
<circle cx="212.333" cy="3.66666" r="2" fill="#333333"/>
<circle cx="15.6667" cy="23.3333" r="2" fill="#333333"/>
<circle cx="35.3333" cy="23.3333" r="2" fill="#333333"/>
<circle cx="55" cy="23.3333" r="2" fill="#333333"/>
<circle cx="74.6667" cy="23.3333" r="2" fill="#333333"/>
<circle cx="94.3333" cy="23.3333" r="2" fill="#333333"/>
<circle cx="114" cy="23.3333" r="2" fill="#333333"/>
<circle cx="133.667" cy="23.3333" r="2" fill="#333333"/>
<circle cx="153.333" cy="23.3333" r="2" fill="#333333"/>
<circle cx="173" cy="23.3333" r="2" fill="#333333"/>
<circle cx="192.667" cy="23.3333" r="2" fill="#333333"/>
<circle cx="212.333" cy="23.3333" r="2" fill="#333333"/>
<circle cx="15.6667" cy="43" r="2" fill="#333333"/>
<circle cx="35.3333" cy="43" r="2" fill="#333333"/>
<circle cx="55" cy="43" r="2" fill="#333333"/>
<circle cx="74.6667" cy="43" r="2" fill="#333333"/>
<circle cx="94.3333" cy="43" r="2" fill="#333333"/>
<circle cx="114" cy="43" r="2" fill="#333333"/>
<circle cx="133.667" cy="43" r="2" fill="#333333"/>
<circle cx="153.333" cy="43" r="2" fill="#333333"/>
<circle cx="173" cy="43" r="2" fill="#333333"/>
<circle cx="192.667" cy="43" r="2" fill="#333333"/>
<circle cx="212.333" cy="43" r="2" fill="#333333"/>
<circle cx="15.6667" cy="62.6667" r="2" fill="#333333"/>
<circle cx="35.3333" cy="62.6667" r="2" fill="#333333"/>
<circle cx="55" cy="62.6667" r="2" fill="#333333"/>
<circle cx="74.6667" cy="62.6667" r="2" fill="#333333"/>
<circle cx="94.3333" cy="62.6667" r="2" fill="#333333"/>
<circle cx="114" cy="62.6667" r="2" fill="#333333"/>
<circle cx="133.667" cy="62.6667" r="2" fill="#333333"/>
<circle cx="153.333" cy="62.6667" r="2" fill="#333333"/>
<circle cx="173" cy="62.6667" r="2" fill="#333333"/>
<circle cx="192.667" cy="62.6667" r="2" fill="#333333"/>
<circle cx="212.333" cy="62.6667" r="2" fill="#333333"/>
<circle cx="15.6667" cy="82.3333" r="2" fill="#333333"/>
<circle cx="35.3333" cy="82.3333" r="2" fill="#333333"/>
<circle cx="55" cy="82.3333" r="2" fill="#333333"/>
<circle cx="74.6667" cy="82.3333" r="2" fill="#333333"/>
<circle cx="94.3333" cy="82.3333" r="2" fill="#333333"/>
<circle cx="114" cy="82.3333" r="2" fill="#333333"/>
<circle cx="133.667" cy="82.3333" r="2" fill="#333333"/>
<circle cx="153.333" cy="82.3333" r="2" fill="#333333"/>
<circle cx="173" cy="82.3333" r="2" fill="#333333"/>
<circle cx="192.667" cy="82.3333" r="2" fill="#333333"/>
<circle cx="212.333" cy="82.3333" r="2" fill="#333333"/>
<rect x="-13.9999" y="43" width="181.019" height="181.019" transform="rotate(-45 -13.9999 43)" stroke="#F6F8FD" stroke-width="2"/>
<rect x="114" y="43" width="181.019" height="181.019" transform="rotate(-45 114 43)" stroke="#F6F8FD" stroke-width="2"/>
<rect x="-142" y="43" width="181.019" height="181.019" transform="rotate(-45 -142 43)" stroke="#F6F8FD" stroke-width="2"/>
</g>
<defs>
<clipPath id="clip0_15_1979">
<rect width="227" height="85" fill="white"/>
</clipPath>
</defs>
</svg>
